<mxfile host="app.diagrams.net" modified="2024-03-07T09:08:14.836Z" agent="Mozilla/5.0 (Windows NT 10.0; Win64; x64) AppleWebKit/537.36 (KHTML, like Gecko) Chrome/122.0.0.0 Safari/537.36" etag="nHkysWuSN0KXI61NldN4" version="24.0.2" type="device">
  <diagram name="Page-1" id="LSdi2p5ztwxRjvrzE2q8">
    <mxGraphModel dx="1000" dy="515" grid="0" gridSize="10" guides="1" tooltips="1" connect="1" arrows="1" fold="1" page="1" pageScale="1" pageWidth="827" pageHeight="1169" math="0" shadow="0">
      <root>
        <mxCell id="0" />
        <mxCell id="1" parent="0" />
        <mxCell id="cHzEQ-eYIFselg-7yi37-7" value="DVD" style="swimlane;fontStyle=0;childLayout=stackLayout;horizontal=1;startSize=30;horizontalStack=0;resizeParent=1;resizeParentMax=0;resizeLast=0;collapsible=1;marginBottom=0;whiteSpace=wrap;html=1;" vertex="1" parent="1">
          <mxGeometry x="61" y="172" width="140" height="270" as="geometry" />
        </mxCell>
        <mxCell id="cHzEQ-eYIFselg-7yi37-8" value="Catalog_Number (PK)" style="text;strokeColor=none;fillColor=none;align=left;verticalAlign=middle;spacingLeft=4;spacingRight=4;overflow=hidden;points=[[0,0.5],[1,0.5]];portConstraint=eastwest;rotatable=0;whiteSpace=wrap;html=1;" vertex="1" parent="cHzEQ-eYIFselg-7yi37-7">
          <mxGeometry y="30" width="140" height="30" as="geometry" />
        </mxCell>
        <mxCell id="cHzEQ-eYIFselg-7yi37-9" value="DVD_Number" style="text;strokeColor=none;fillColor=none;align=left;verticalAlign=middle;spacingLeft=4;spacingRight=4;overflow=hidden;points=[[0,0.5],[1,0.5]];portConstraint=eastwest;rotatable=0;whiteSpace=wrap;html=1;" vertex="1" parent="cHzEQ-eYIFselg-7yi37-7">
          <mxGeometry y="60" width="140" height="30" as="geometry" />
        </mxCell>
        <mxCell id="cHzEQ-eYIFselg-7yi37-10" value="Title" style="text;strokeColor=none;fillColor=none;align=left;verticalAlign=middle;spacingLeft=4;spacingRight=4;overflow=hidden;points=[[0,0.5],[1,0.5]];portConstraint=eastwest;rotatable=0;whiteSpace=wrap;html=1;" vertex="1" parent="cHzEQ-eYIFselg-7yi37-7">
          <mxGeometry y="90" width="140" height="30" as="geometry" />
        </mxCell>
        <mxCell id="cHzEQ-eYIFselg-7yi37-35" value="Category" style="text;strokeColor=none;fillColor=none;align=left;verticalAlign=middle;spacingLeft=4;spacingRight=4;overflow=hidden;points=[[0,0.5],[1,0.5]];portConstraint=eastwest;rotatable=0;whiteSpace=wrap;html=1;" vertex="1" parent="cHzEQ-eYIFselg-7yi37-7">
          <mxGeometry y="120" width="140" height="30" as="geometry" />
        </mxCell>
        <mxCell id="cHzEQ-eYIFselg-7yi37-36" value="Daily_Rental" style="text;strokeColor=none;fillColor=none;align=left;verticalAlign=middle;spacingLeft=4;spacingRight=4;overflow=hidden;points=[[0,0.5],[1,0.5]];portConstraint=eastwest;rotatable=0;whiteSpace=wrap;html=1;" vertex="1" parent="cHzEQ-eYIFselg-7yi37-7">
          <mxGeometry y="150" width="140" height="30" as="geometry" />
        </mxCell>
        <mxCell id="cHzEQ-eYIFselg-7yi37-37" value="Cost" style="text;strokeColor=none;fillColor=none;align=left;verticalAlign=middle;spacingLeft=4;spacingRight=4;overflow=hidden;points=[[0,0.5],[1,0.5]];portConstraint=eastwest;rotatable=0;whiteSpace=wrap;html=1;" vertex="1" parent="cHzEQ-eYIFselg-7yi37-7">
          <mxGeometry y="180" width="140" height="30" as="geometry" />
        </mxCell>
        <mxCell id="cHzEQ-eYIFselg-7yi37-39" value="Actor" style="text;strokeColor=none;fillColor=none;align=left;verticalAlign=middle;spacingLeft=4;spacingRight=4;overflow=hidden;points=[[0,0.5],[1,0.5]];portConstraint=eastwest;rotatable=0;whiteSpace=wrap;html=1;" vertex="1" parent="cHzEQ-eYIFselg-7yi37-7">
          <mxGeometry y="210" width="140" height="30" as="geometry" />
        </mxCell>
        <mxCell id="cHzEQ-eYIFselg-7yi37-40" value="Director" style="text;strokeColor=none;fillColor=none;align=left;verticalAlign=middle;spacingLeft=4;spacingRight=4;overflow=hidden;points=[[0,0.5],[1,0.5]];portConstraint=eastwest;rotatable=0;whiteSpace=wrap;html=1;" vertex="1" parent="cHzEQ-eYIFselg-7yi37-7">
          <mxGeometry y="240" width="140" height="30" as="geometry" />
        </mxCell>
        <mxCell id="cHzEQ-eYIFselg-7yi37-11" value="Branch" style="swimlane;fontStyle=0;childLayout=stackLayout;horizontal=1;startSize=30;horizontalStack=0;resizeParent=1;resizeParentMax=0;resizeLast=0;collapsible=1;marginBottom=0;whiteSpace=wrap;html=1;" vertex="1" parent="1">
          <mxGeometry x="354" y="207" width="140" height="210" as="geometry" />
        </mxCell>
        <mxCell id="cHzEQ-eYIFselg-7yi37-43" value="Branch_Number (PK)" style="text;strokeColor=none;fillColor=none;align=left;verticalAlign=middle;spacingLeft=4;spacingRight=4;overflow=hidden;points=[[0,0.5],[1,0.5]];portConstraint=eastwest;rotatable=0;whiteSpace=wrap;html=1;" vertex="1" parent="cHzEQ-eYIFselg-7yi37-11">
          <mxGeometry y="30" width="140" height="30" as="geometry" />
        </mxCell>
        <mxCell id="cHzEQ-eYIFselg-7yi37-12" value="Street" style="text;strokeColor=none;fillColor=none;align=left;verticalAlign=middle;spacingLeft=4;spacingRight=4;overflow=hidden;points=[[0,0.5],[1,0.5]];portConstraint=eastwest;rotatable=0;whiteSpace=wrap;html=1;" vertex="1" parent="cHzEQ-eYIFselg-7yi37-11">
          <mxGeometry y="60" width="140" height="30" as="geometry" />
        </mxCell>
        <mxCell id="cHzEQ-eYIFselg-7yi37-13" value="City" style="text;strokeColor=none;fillColor=none;align=left;verticalAlign=middle;spacingLeft=4;spacingRight=4;overflow=hidden;points=[[0,0.5],[1,0.5]];portConstraint=eastwest;rotatable=0;whiteSpace=wrap;html=1;" vertex="1" parent="cHzEQ-eYIFselg-7yi37-11">
          <mxGeometry y="90" width="140" height="30" as="geometry" />
        </mxCell>
        <mxCell id="cHzEQ-eYIFselg-7yi37-14" value="State" style="text;strokeColor=none;fillColor=none;align=left;verticalAlign=middle;spacingLeft=4;spacingRight=4;overflow=hidden;points=[[0,0.5],[1,0.5]];portConstraint=eastwest;rotatable=0;whiteSpace=wrap;html=1;" vertex="1" parent="cHzEQ-eYIFselg-7yi37-11">
          <mxGeometry y="120" width="140" height="30" as="geometry" />
        </mxCell>
        <mxCell id="cHzEQ-eYIFselg-7yi37-41" value="Zip_Code" style="text;strokeColor=none;fillColor=none;align=left;verticalAlign=middle;spacingLeft=4;spacingRight=4;overflow=hidden;points=[[0,0.5],[1,0.5]];portConstraint=eastwest;rotatable=0;whiteSpace=wrap;html=1;" vertex="1" parent="cHzEQ-eYIFselg-7yi37-11">
          <mxGeometry y="150" width="140" height="30" as="geometry" />
        </mxCell>
        <mxCell id="cHzEQ-eYIFselg-7yi37-42" value="Telephone_Number" style="text;strokeColor=none;fillColor=none;align=left;verticalAlign=middle;spacingLeft=4;spacingRight=4;overflow=hidden;points=[[0,0.5],[1,0.5]];portConstraint=eastwest;rotatable=0;whiteSpace=wrap;html=1;" vertex="1" parent="cHzEQ-eYIFselg-7yi37-11">
          <mxGeometry y="180" width="140" height="30" as="geometry" />
        </mxCell>
        <mxCell id="cHzEQ-eYIFselg-7yi37-23" value="Staff" style="swimlane;fontStyle=0;childLayout=stackLayout;horizontal=1;startSize=30;horizontalStack=0;resizeParent=1;resizeParentMax=0;resizeLast=0;collapsible=1;marginBottom=0;whiteSpace=wrap;html=1;" vertex="1" parent="1">
          <mxGeometry x="644" y="217" width="140" height="150" as="geometry" />
        </mxCell>
        <mxCell id="cHzEQ-eYIFselg-7yi37-45" value="Staff_Number (PK)" style="text;strokeColor=none;fillColor=none;align=left;verticalAlign=middle;spacingLeft=4;spacingRight=4;overflow=hidden;points=[[0,0.5],[1,0.5]];portConstraint=eastwest;rotatable=0;whiteSpace=wrap;html=1;" vertex="1" parent="cHzEQ-eYIFselg-7yi37-23">
          <mxGeometry y="30" width="140" height="30" as="geometry" />
        </mxCell>
        <mxCell id="cHzEQ-eYIFselg-7yi37-25" value="Name" style="text;strokeColor=none;fillColor=none;align=left;verticalAlign=middle;spacingLeft=4;spacingRight=4;overflow=hidden;points=[[0,0.5],[1,0.5]];portConstraint=eastwest;rotatable=0;whiteSpace=wrap;html=1;" vertex="1" parent="cHzEQ-eYIFselg-7yi37-23">
          <mxGeometry y="60" width="140" height="30" as="geometry" />
        </mxCell>
        <mxCell id="cHzEQ-eYIFselg-7yi37-26" value="Position" style="text;strokeColor=none;fillColor=none;align=left;verticalAlign=middle;spacingLeft=4;spacingRight=4;overflow=hidden;points=[[0,0.5],[1,0.5]];portConstraint=eastwest;rotatable=0;whiteSpace=wrap;html=1;" vertex="1" parent="cHzEQ-eYIFselg-7yi37-23">
          <mxGeometry y="90" width="140" height="30" as="geometry" />
        </mxCell>
        <mxCell id="cHzEQ-eYIFselg-7yi37-44" value="Salary" style="text;strokeColor=none;fillColor=none;align=left;verticalAlign=middle;spacingLeft=4;spacingRight=4;overflow=hidden;points=[[0,0.5],[1,0.5]];portConstraint=eastwest;rotatable=0;whiteSpace=wrap;html=1;" vertex="1" parent="cHzEQ-eYIFselg-7yi37-23">
          <mxGeometry y="120" width="140" height="30" as="geometry" />
        </mxCell>
        <mxCell id="cHzEQ-eYIFselg-7yi37-27" value="Rent" style="swimlane;fontStyle=0;childLayout=stackLayout;horizontal=1;startSize=30;horizontalStack=0;resizeParent=1;resizeParentMax=0;resizeLast=0;collapsible=1;marginBottom=0;whiteSpace=wrap;html=1;" vertex="1" parent="1">
          <mxGeometry x="64" y="822" width="140" height="210" as="geometry" />
        </mxCell>
        <mxCell id="cHzEQ-eYIFselg-7yi37-28" value="Rental_Number (PK)" style="text;strokeColor=none;fillColor=none;align=left;verticalAlign=middle;spacingLeft=4;spacingRight=4;overflow=hidden;points=[[0,0.5],[1,0.5]];portConstraint=eastwest;rotatable=0;whiteSpace=wrap;html=1;" vertex="1" parent="cHzEQ-eYIFselg-7yi37-27">
          <mxGeometry y="30" width="140" height="30" as="geometry" />
        </mxCell>
        <mxCell id="cHzEQ-eYIFselg-7yi37-30" value="Member_Number" style="text;strokeColor=none;fillColor=none;align=left;verticalAlign=middle;spacingLeft=4;spacingRight=4;overflow=hidden;points=[[0,0.5],[1,0.5]];portConstraint=eastwest;rotatable=0;whiteSpace=wrap;html=1;" vertex="1" parent="cHzEQ-eYIFselg-7yi37-27">
          <mxGeometry y="60" width="140" height="30" as="geometry" />
        </mxCell>
        <mxCell id="cHzEQ-eYIFselg-7yi37-52" value="DVD_Number" style="text;strokeColor=none;fillColor=none;align=left;verticalAlign=middle;spacingLeft=4;spacingRight=4;overflow=hidden;points=[[0,0.5],[1,0.5]];portConstraint=eastwest;rotatable=0;whiteSpace=wrap;html=1;" vertex="1" parent="cHzEQ-eYIFselg-7yi37-27">
          <mxGeometry y="90" width="140" height="30" as="geometry" />
        </mxCell>
        <mxCell id="cHzEQ-eYIFselg-7yi37-54" value="Daily_Rental" style="text;strokeColor=none;fillColor=none;align=left;verticalAlign=middle;spacingLeft=4;spacingRight=4;overflow=hidden;points=[[0,0.5],[1,0.5]];portConstraint=eastwest;rotatable=0;whiteSpace=wrap;html=1;" vertex="1" parent="cHzEQ-eYIFselg-7yi37-27">
          <mxGeometry y="120" width="140" height="30" as="geometry" />
        </mxCell>
        <mxCell id="cHzEQ-eYIFselg-7yi37-55" value="Rent_Date" style="text;strokeColor=none;fillColor=none;align=left;verticalAlign=middle;spacingLeft=4;spacingRight=4;overflow=hidden;points=[[0,0.5],[1,0.5]];portConstraint=eastwest;rotatable=0;whiteSpace=wrap;html=1;" vertex="1" parent="cHzEQ-eYIFselg-7yi37-27">
          <mxGeometry y="150" width="140" height="30" as="geometry" />
        </mxCell>
        <mxCell id="cHzEQ-eYIFselg-7yi37-56" value="Return_Date" style="text;strokeColor=none;fillColor=none;align=left;verticalAlign=middle;spacingLeft=4;spacingRight=4;overflow=hidden;points=[[0,0.5],[1,0.5]];portConstraint=eastwest;rotatable=0;whiteSpace=wrap;html=1;" vertex="1" parent="cHzEQ-eYIFselg-7yi37-27">
          <mxGeometry y="180" width="140" height="30" as="geometry" />
        </mxCell>
        <mxCell id="cHzEQ-eYIFselg-7yi37-31" value="Member" style="swimlane;fontStyle=0;childLayout=stackLayout;horizontal=1;startSize=30;horizontalStack=0;resizeParent=1;resizeParentMax=0;resizeLast=0;collapsible=1;marginBottom=0;whiteSpace=wrap;html=1;" vertex="1" parent="1">
          <mxGeometry x="354" y="589" width="140" height="180" as="geometry" />
        </mxCell>
        <mxCell id="cHzEQ-eYIFselg-7yi37-51" value="Member_Number (PK)" style="text;strokeColor=none;fillColor=none;align=left;verticalAlign=middle;spacingLeft=4;spacingRight=4;overflow=hidden;points=[[0,0.5],[1,0.5]];portConstraint=eastwest;rotatable=0;whiteSpace=wrap;html=1;" vertex="1" parent="cHzEQ-eYIFselg-7yi37-31">
          <mxGeometry y="30" width="140" height="30" as="geometry" />
        </mxCell>
        <mxCell id="cHzEQ-eYIFselg-7yi37-32" value="F_Name" style="text;strokeColor=none;fillColor=none;align=left;verticalAlign=middle;spacingLeft=4;spacingRight=4;overflow=hidden;points=[[0,0.5],[1,0.5]];portConstraint=eastwest;rotatable=0;whiteSpace=wrap;html=1;" vertex="1" parent="cHzEQ-eYIFselg-7yi37-31">
          <mxGeometry y="60" width="140" height="30" as="geometry" />
        </mxCell>
        <mxCell id="cHzEQ-eYIFselg-7yi37-33" value="L_Name" style="text;strokeColor=none;fillColor=none;align=left;verticalAlign=middle;spacingLeft=4;spacingRight=4;overflow=hidden;points=[[0,0.5],[1,0.5]];portConstraint=eastwest;rotatable=0;whiteSpace=wrap;html=1;" vertex="1" parent="cHzEQ-eYIFselg-7yi37-31">
          <mxGeometry y="90" width="140" height="30" as="geometry" />
        </mxCell>
        <mxCell id="cHzEQ-eYIFselg-7yi37-34" value="Adress" style="text;strokeColor=none;fillColor=none;align=left;verticalAlign=middle;spacingLeft=4;spacingRight=4;overflow=hidden;points=[[0,0.5],[1,0.5]];portConstraint=eastwest;rotatable=0;whiteSpace=wrap;html=1;" vertex="1" parent="cHzEQ-eYIFselg-7yi37-31">
          <mxGeometry y="120" width="140" height="30" as="geometry" />
        </mxCell>
        <mxCell id="cHzEQ-eYIFselg-7yi37-50" value="Date" style="text;strokeColor=none;fillColor=none;align=left;verticalAlign=middle;spacingLeft=4;spacingRight=4;overflow=hidden;points=[[0,0.5],[1,0.5]];portConstraint=eastwest;rotatable=0;whiteSpace=wrap;html=1;" vertex="1" parent="cHzEQ-eYIFselg-7yi37-31">
          <mxGeometry y="150" width="140" height="30" as="geometry" />
        </mxCell>
        <mxCell id="cHzEQ-eYIFselg-7yi37-60" value="" style="endArrow=none;html=1;rounded=0;exitX=1;exitY=0.5;exitDx=0;exitDy=0;entryX=0.004;entryY=0.15;entryDx=0;entryDy=0;entryPerimeter=0;" edge="1" parent="1" source="cHzEQ-eYIFselg-7yi37-13" target="cHzEQ-eYIFselg-7yi37-26">
          <mxGeometry width="50" height="50" relative="1" as="geometry">
            <mxPoint x="614" y="437" as="sourcePoint" />
            <mxPoint x="664" y="387" as="targetPoint" />
          </mxGeometry>
        </mxCell>
        <mxCell id="cHzEQ-eYIFselg-7yi37-61" value="" style="triangle;whiteSpace=wrap;html=1;" vertex="1" parent="1">
          <mxGeometry x="576.75" y="284.5" width="11.25" height="15" as="geometry" />
        </mxCell>
        <mxCell id="cHzEQ-eYIFselg-7yi37-62" value="Has" style="text;html=1;align=center;verticalAlign=middle;whiteSpace=wrap;rounded=0;" vertex="1" parent="1">
          <mxGeometry x="528" y="277" width="60" height="30" as="geometry" />
        </mxCell>
        <mxCell id="cHzEQ-eYIFselg-7yi37-63" value="Work At" style="text;html=1;align=center;verticalAlign=middle;whiteSpace=wrap;rounded=0;" vertex="1" parent="1">
          <mxGeometry x="544" y="317" width="60" height="30" as="geometry" />
        </mxCell>
        <mxCell id="cHzEQ-eYIFselg-7yi37-64" value="" style="triangle;whiteSpace=wrap;html=1;rotation=-180;" vertex="1" parent="1">
          <mxGeometry x="532.75" y="324.5" width="11.25" height="15" as="geometry" />
        </mxCell>
        <mxCell id="cHzEQ-eYIFselg-7yi37-65" value="1...*" style="text;html=1;align=center;verticalAlign=middle;whiteSpace=wrap;rounded=0;" vertex="1" parent="1">
          <mxGeometry x="484" y="284.5" width="60" height="30" as="geometry" />
        </mxCell>
        <mxCell id="cHzEQ-eYIFselg-7yi37-66" value="1...1" style="text;html=1;align=center;verticalAlign=middle;whiteSpace=wrap;rounded=0;" vertex="1" parent="1">
          <mxGeometry x="594" y="307" width="60" height="30" as="geometry" />
        </mxCell>
        <mxCell id="cHzEQ-eYIFselg-7yi37-70" value="Has" style="text;html=1;align=center;verticalAlign=middle;whiteSpace=wrap;rounded=0;rotation=0;" vertex="1" parent="1">
          <mxGeometry x="279.37" y="277" width="60" height="30" as="geometry" />
        </mxCell>
        <mxCell id="cHzEQ-eYIFselg-7yi37-71" value="" style="triangle;whiteSpace=wrap;html=1;rotation=-180;" vertex="1" parent="1">
          <mxGeometry x="281" y="284.5" width="11.25" height="15" as="geometry" />
        </mxCell>
        <mxCell id="cHzEQ-eYIFselg-7yi37-74" value="Copy" style="swimlane;fontStyle=0;childLayout=stackLayout;horizontal=1;startSize=30;horizontalStack=0;resizeParent=1;resizeParentMax=0;resizeLast=0;collapsible=1;marginBottom=0;whiteSpace=wrap;html=1;" vertex="1" parent="1">
          <mxGeometry x="61" y="585" width="140" height="120" as="geometry" />
        </mxCell>
        <mxCell id="cHzEQ-eYIFselg-7yi37-75" value="DVD_Number" style="text;strokeColor=none;fillColor=none;align=left;verticalAlign=middle;spacingLeft=4;spacingRight=4;overflow=hidden;points=[[0,0.5],[1,0.5]];portConstraint=eastwest;rotatable=0;whiteSpace=wrap;html=1;" vertex="1" parent="cHzEQ-eYIFselg-7yi37-74">
          <mxGeometry y="30" width="140" height="30" as="geometry" />
        </mxCell>
        <mxCell id="cHzEQ-eYIFselg-7yi37-76" value="Catolog_Number" style="text;strokeColor=none;fillColor=none;align=left;verticalAlign=middle;spacingLeft=4;spacingRight=4;overflow=hidden;points=[[0,0.5],[1,0.5]];portConstraint=eastwest;rotatable=0;whiteSpace=wrap;html=1;" vertex="1" parent="cHzEQ-eYIFselg-7yi37-74">
          <mxGeometry y="60" width="140" height="30" as="geometry" />
        </mxCell>
        <mxCell id="cHzEQ-eYIFselg-7yi37-77" value="Status" style="text;strokeColor=none;fillColor=none;align=left;verticalAlign=middle;spacingLeft=4;spacingRight=4;overflow=hidden;points=[[0,0.5],[1,0.5]];portConstraint=eastwest;rotatable=0;whiteSpace=wrap;html=1;" vertex="1" parent="cHzEQ-eYIFselg-7yi37-74">
          <mxGeometry y="90" width="140" height="30" as="geometry" />
        </mxCell>
        <mxCell id="cHzEQ-eYIFselg-7yi37-80" value="" style="triangle;whiteSpace=wrap;html=1;rotation=-90;" vertex="1" parent="1">
          <mxGeometry x="441.37" y="440" width="11.25" height="15" as="geometry" />
        </mxCell>
        <mxCell id="cHzEQ-eYIFselg-7yi37-83" value="Register" style="text;html=1;align=center;verticalAlign=middle;whiteSpace=wrap;rounded=0;rotation=-90;" vertex="1" parent="1">
          <mxGeometry x="416.99" y="480" width="60" height="30" as="geometry" />
        </mxCell>
        <mxCell id="cHzEQ-eYIFselg-7yi37-84" value="*...1" style="text;html=1;align=center;verticalAlign=middle;whiteSpace=wrap;rounded=0;rotation=-90;" vertex="1" parent="1">
          <mxGeometry x="416.99" y="552" width="60" height="30" as="geometry" />
        </mxCell>
        <mxCell id="cHzEQ-eYIFselg-7yi37-86" value="" style="endArrow=none;html=1;rounded=0;exitX=0;exitY=0.317;exitDx=0;exitDy=0;exitPerimeter=0;entryX=1;entryY=0.5;entryDx=0;entryDy=0;" edge="1" parent="1" source="cHzEQ-eYIFselg-7yi37-13" target="cHzEQ-eYIFselg-7yi37-35">
          <mxGeometry width="50" height="50" relative="1" as="geometry">
            <mxPoint x="181" y="96" as="sourcePoint" />
            <mxPoint x="-19" y="26" as="targetPoint" />
          </mxGeometry>
        </mxCell>
        <mxCell id="cHzEQ-eYIFselg-7yi37-89" value="*...1" style="text;html=1;align=center;verticalAlign=middle;whiteSpace=wrap;rounded=0;rotation=0;" vertex="1" parent="1">
          <mxGeometry x="187" y="280" width="60" height="30" as="geometry" />
        </mxCell>
        <mxCell id="cHzEQ-eYIFselg-7yi37-94" value="" style="endArrow=none;html=1;rounded=0;exitX=0.503;exitY=1.052;exitDx=0;exitDy=0;exitPerimeter=0;" edge="1" parent="1" source="cHzEQ-eYIFselg-7yi37-42">
          <mxGeometry width="50" height="50" relative="1" as="geometry">
            <mxPoint x="457" y="428" as="sourcePoint" />
            <mxPoint x="424" y="588" as="targetPoint" />
          </mxGeometry>
        </mxCell>
        <mxCell id="cHzEQ-eYIFselg-7yi37-95" value="" style="triangle;whiteSpace=wrap;html=1;rotation=90;" vertex="1" parent="1">
          <mxGeometry x="402.75" y="525" width="11.25" height="15" as="geometry" />
        </mxCell>
        <mxCell id="cHzEQ-eYIFselg-7yi37-98" value="Has" style="text;html=1;align=center;verticalAlign=middle;whiteSpace=wrap;rounded=0;rotation=-90;" vertex="1" parent="1">
          <mxGeometry x="378.38" y="491" width="60" height="30" as="geometry" />
        </mxCell>
        <mxCell id="cHzEQ-eYIFselg-7yi37-99" value="1...*" style="text;html=1;align=center;verticalAlign=middle;whiteSpace=wrap;rounded=0;rotation=-90;" vertex="1" parent="1">
          <mxGeometry x="378.38" y="421" width="60" height="30" as="geometry" />
        </mxCell>
        <mxCell id="cHzEQ-eYIFselg-7yi37-100" value="" style="endArrow=none;html=1;rounded=0;exitX=0.498;exitY=1.124;exitDx=0;exitDy=0;exitPerimeter=0;entryX=0.5;entryY=0;entryDx=0;entryDy=0;" edge="1" parent="1" source="cHzEQ-eYIFselg-7yi37-40" target="cHzEQ-eYIFselg-7yi37-74">
          <mxGeometry width="50" height="50" relative="1" as="geometry">
            <mxPoint x="227" y="676" as="sourcePoint" />
            <mxPoint x="277" y="626" as="targetPoint" />
          </mxGeometry>
        </mxCell>
        <mxCell id="cHzEQ-eYIFselg-7yi37-101" value="" style="endArrow=none;html=1;rounded=0;exitX=0.504;exitY=1.119;exitDx=0;exitDy=0;exitPerimeter=0;" edge="1" parent="1" source="cHzEQ-eYIFselg-7yi37-77">
          <mxGeometry width="50" height="50" relative="1" as="geometry">
            <mxPoint x="227" y="676" as="sourcePoint" />
            <mxPoint x="132" y="821" as="targetPoint" />
          </mxGeometry>
        </mxCell>
        <mxCell id="cHzEQ-eYIFselg-7yi37-102" value="" style="endArrow=none;html=1;rounded=0;exitX=1.003;exitY=0.822;exitDx=0;exitDy=0;exitPerimeter=0;" edge="1" parent="1" source="cHzEQ-eYIFselg-7yi37-52">
          <mxGeometry width="50" height="50" relative="1" as="geometry">
            <mxPoint x="227" y="1009" as="sourcePoint" />
            <mxPoint x="427" y="937" as="targetPoint" />
          </mxGeometry>
        </mxCell>
        <mxCell id="cHzEQ-eYIFselg-7yi37-103" value="" style="endArrow=none;html=1;rounded=0;entryX=0.517;entryY=1.065;entryDx=0;entryDy=0;entryPerimeter=0;" edge="1" parent="1" target="cHzEQ-eYIFselg-7yi37-50">
          <mxGeometry width="50" height="50" relative="1" as="geometry">
            <mxPoint x="426" y="937" as="sourcePoint" />
            <mxPoint x="277" y="959" as="targetPoint" />
          </mxGeometry>
        </mxCell>
        <mxCell id="cHzEQ-eYIFselg-7yi37-104" value="1...1" style="text;html=1;align=center;verticalAlign=middle;whiteSpace=wrap;rounded=0;" vertex="1" parent="1">
          <mxGeometry x="594" y="284.5" width="60" height="30" as="geometry" />
        </mxCell>
      </root>
    </mxGraphModel>
  </diagram>
</mxfile>
